<?xml version="1.0" encoding="utf-8"?>
<!-- Generator: Adobe Illustrator 22.0.0, SVG Export Plug-In . SVG Version: 6.00 Build 0)  -->
<svg version="1.1" id="图层_1" xmlns="http://www.w3.org/2000/svg" xmlns:xlink="http://www.w3.org/1999/xlink" x="0px" y="0px"
	 viewBox="0 0 800 800" style="enable-background:new 0 0 800 800;" xml:space="preserve">
<style type="text/css">
	.st0{fill:#F5F9FB;}
	.st1{fill:#26F2F8;}
	.st2{fill:none;}
	.st3{fill:#4D4D4D;}
	.st4{fill:url(#SVGID_1_);}
	.st5{fill:url(#SVGID_2_);}
	.st6{fill:url(#SVGID_3_);}
	.st7{fill:url(#SVGID_4_);}
	.st8{fill:url(#SVGID_5_);}
	.st9{fill:#675F3D;}
	.st10{fill:#F0CB50;}
</style>
<g>
	<g>
		<g>
			<path class="st0" d="M168.1,520.9c-5.5-3.4-13.6-5.1-24.3-5.1h-22.4L108,597h19.7l5.1-30.9h4c11.7-0.1,20.9-2.2,27.5-6
				c6.7-3.9,10.8-10.1,12-18.2c0.2-1.8,0.4-3.5,0.4-4.9C176.7,529.8,173.8,524.4,168.1,520.9z M151.4,548c-2.9,1.9-7.4,2.9-13.4,3
				l-2.7,0.1l3.4-20.2h5.8c4,0,7,0.7,9.2,2.1c2,1.3,2.9,3.1,3,5.6v0c0,0.9-0.1,1.4-0.1,1.6C155.9,543.6,154.3,546.2,151.4,548z"/>
			<path class="st0" d="M236.8,557.4c0-7.9-2.1-13.9-6.4-18c-4.2-4-10.1-6-17.7-6c-8.5,0-15.7,2.7-21.4,8.1
				c-5.6,5.3-9.3,13.3-10.8,23.8c-0.5,3-0.7,5.8-0.7,8.3c0,7.9,2.1,13.9,6.3,17.9c4.1,3.9,10,5.9,17.5,5.9c8.6,0,15.8-2.7,21.5-8
				c5.7-5.3,9.4-13.2,11-23.7C236.6,562.3,236.8,559.6,236.8,557.4z M200,565.7c1-6.1,2.5-10.6,4.6-13.5c1.9-2.7,4.4-4,7.4-4
				c2,0,3.3,0.6,4.2,1.8c1,1.3,1.4,3.5,1.4,6.4c0,1.9-0.3,4.8-0.8,8.7c-1.1,5.9-2.7,10.4-4.7,13.2c-1.9,2.7-4.4,4-7.5,4
				c-2,0-3.3-0.6-4.1-1.7c-0.9-1.3-1.4-3.3-1.4-6.1C199,572.6,199.3,569.5,200,565.7z"/>
			<polygon class="st0" points="249.2,512.6 235.1,597 254.3,597 268.3,512.6 			"/>
			<path class="st0" d="M307,534.7l-13,37.1l-5.9-37.1H268l12.8,63.6c-1.9,2.3-4.9,3.5-9.1,3.5c-1.2,0-2.4-0.1-3.5-0.3
				c-1.2-0.2-2.5-0.5-3.7-0.8l-1.5-0.4l-2.5,15l1.3,0.3c3.8,0.9,8,1.4,12.5,1.4c4.9,0,9-0.6,12.4-1.9c3.4-1.3,6.5-3.4,9.1-6.5
				c2.6-3,5-7.2,7.1-12.6l24.7-61.3H307z"/>
		</g>
		<g>
			<polygon class="st1" points="399.8,530.8 402.3,515.8 348.8,515.8 333.5,597 388.1,597 390.6,582 358.4,582 361.8,563.7 
				388.7,563.7 391.5,548.7 364.7,548.7 368.1,530.8 			"/>
			<path class="st1" d="M454.8,538.4l-5-3.9h-8.1c-4.7,0-8.8,1.2-12.4,3.5l0.3-2.5h-18.5l-10.5,62h19.3l6.4-38.1
				c0.7-3,2-5.4,3.8-7.1c1.8-1.7,3.7-2.5,6-2.5c1.5,0,2.6,0.3,3.3,1c0.7,0.7,1,1.8,1,3.5c0,1-0.1,2.2-0.3,3.5l-6.7,39.7h19.3
				l6.8-40.2c0.3-1.9,0.5-3.8,0.5-5.8C459.9,545.4,458.2,541,454.8,538.4z"/>
			<path class="st1" d="M501.7,574.6c-1,3-2.3,5.2-3.8,6.4c-1.4,1.2-3.4,1.8-5.9,1.8c-3.2,0-7.5-1.1-7.6-10.1c0-0.8,0-1.4,0-2H522
				l0.2-1.1c0.9-4.9,1.3-9.2,1.3-12.7c0-7.8-2.1-13.8-6.1-17.6c-4-3.8-10.1-5.8-18.2-5.8c-9.9,0-17.7,2.8-23.1,8.4
				c-5.4,5.5-8.8,13.2-10.2,23c-0.5,2.9-0.7,5.7-0.7,8.3c0,16.1,9.2,24.3,27.3,24.3c8,0,14.2-1.6,18.6-4.8c4.4-3.2,7.7-8.3,9.8-15.1
				l0.5-1.6l-19.3-2.4L501.7,574.6z M503.9,556.8h-16.5c1.1-2.8,2.4-4.9,4-6.3c1.8-1.6,4.1-2.4,6.9-2.4c2,0,3.4,0.5,4.2,1.6
				c0.9,1.2,1.4,3.1,1.4,5.6C503.9,555.8,503.9,556.3,503.9,556.8z"/>
			<path class="st1" d="M565.2,550l1.3,0.1l2.5-15.5h-1.6c-6.6,0-12.1,1.3-16.5,3.8l0.6-3.3h-19.2l-10.4,62.3H541l6.4-38.5
				c1-3.2,2.6-5.6,4.8-6.9c2.3-1.4,5.3-2.1,8.9-2.1C561.9,549.8,563.3,549.9,565.2,550z"/>
			<path class="st1" d="M607.7,535.6l-0.4,2.2c-2.9-2.1-6.7-3.1-11.3-3.1c-7.6,0-14,2.5-19.2,7.6c-5.1,5-8.6,12.4-10.2,22.2
				c-0.6,4.1-1,7.7-1,10.5c0,7.9,2,13.7,5.8,17.3c1.4,1.3,3,2.4,4.9,3.2l-16.8,5.6l0.6,1.4c2.4,5.2,5.8,9.1,10.2,11.7
				c4.4,2.6,10,3.9,16.8,3.9c5.8,0,10.6-0.7,14.5-2c4-1.4,7.4-4.2,10.1-8.2c2.6-3.9,4.6-9.6,5.8-17l9.4-55.3H607.7z M594.5,582.7
				h-3.8c-1.9,0-3.3-0.6-4.1-1.8c-0.9-1.3-1.4-3.6-1.4-6.6c0-2.3,0.2-5.1,0.7-8.3c1.6-11,5.5-16.3,11.7-16.3c2,0,3.4,0.6,4.4,1.9
				c1.1,1.4,1.6,3.5,1.6,6.2c0,0.6-0.1,1.7-0.2,3.2l-1.9,11.1c-0.8,3.1-2.2,5.7-4.2,7.7L594.5,582.7z M595.7,599.5
				c-1,1.5-2,2.4-3.1,2.9c-1.2,0.5-2.8,0.7-4.7,0.7c-2.4,0-4.3-0.5-5.7-1.5c-1.4-1-2.6-2.7-3.7-5.2c2.7,0.9,5.8,1.3,9.2,1.3
				c3.5,0,6.7-0.7,9.7-2.1C596.9,597.2,596.3,598.5,595.7,599.5z"/>
			<path class="st1" d="M671.5,534.7l-13,37.1l-5.9-37.1h-20.1l12.8,63.6c-1.9,2.3-4.9,3.5-9.1,3.5c-1.2,0-2.4-0.1-3.5-0.3
				c-1.2-0.2-2.5-0.5-3.7-0.8l-1.5-0.4l-2.5,15l1.3,0.3c3.8,0.9,8,1.4,12.5,1.4c4.9,0,9-0.6,12.4-1.9c3.4-1.3,6.5-3.4,9.1-6.5
				c2.6-3,5-7.2,7.1-12.6l24.7-61.3H671.5z"/>
		</g>
	</g>
	<g>
		<path class="st1" d="M236.8,651.5c-0.9,2.6-2.1,4.7-3.5,6.2c-1-0.8-1.9-1.5-2.7-1.9c1.2-1.2,2.2-2.9,3-5.1L236.8,651.5z
			 M241.3,649.8v7.4c0,1.6-0.4,2.6-1.3,3.1c-0.7,0.4-2.1,0.6-4.2,0.6c-0.2-1.1-0.5-2.2-1.1-3.3c0.7,0,1.5,0,2.5,0
			c0.3,0,0.5-0.2,0.5-0.5v-7.3h-6.3v-3.4h6.3v-2.7h-6.6v-3.4h3.4c-0.2-1.3-0.6-2.5-1-3.6l2.8-0.7h-4.7v-3.3h5.9
			c-0.3-0.8-0.6-1.7-1-2.7l3.7-0.9c0.7,1.4,1.2,2.6,1.5,3.6h5.4v3.3h-4.3l2.8,0.6c-1.1,2.7-1.6,3.9-1.6,3.7h3.6v3.4h-6.2v2.7h5.7
			v3.4H241.3z M236.8,636c0.6,1.2,1,2.5,1.2,3.8l-1.7,0.4h4.1c0.6-1.5,1.1-2.9,1.5-4.3H236.8z M263,644.4h-3.2v16.9h-4v-16.9h-3.4
			v0.2c0,7.6-1.1,13.1-3.4,16.4c-0.9-1-2-1.8-3.1-2.4c0.7-1,1.2-2.1,1.5-3.3l-2.7,1.7c-0.6-1.4-1.4-3.1-2.7-5.2l2.7-1.5
			c1.1,1.7,2,3.3,2.8,4.9c0.8-2.5,1.2-6,1.2-10.6v-12.1c4.6-0.8,8.1-1.8,10.4-2.9l3.2,3c-2.6,1-5.9,1.9-9.8,2.6v5.4H263V644.4z"/>
		<path class="st1" d="M294.7,631.3c2.1,3.1,3.4,5.6,3.9,7.6l-3.7,1.5c-0.1-0.4-0.3-1-0.6-1.7c-6.2,0.5-9.7,0.9-10.6,1.3
			c-0.3-1.1-0.8-2.4-1.4-3.8c0.5-0.1,1.1-0.6,1.7-1.3c1.3-1.7,2.3-3.6,3.1-5.7l4.3,1.1c-0.9,1.8-2.1,3.7-3.7,5.7l5-0.3
			c-0.3-0.6-0.9-1.6-1.7-3L294.7,631.3z M296.9,657.3c0,1.7-0.5,2.9-1.5,3.4c-0.8,0.5-2.4,0.7-4.8,0.7c-0.2-1.1-0.7-2.4-1.3-3.6
			c1.2,0.1,2.2,0.1,3,0c0.4,0,0.6-0.2,0.6-0.5v-2.3h-5.1v6.5h-3.8v-19.8h13V657.3z M287.7,645v1.8h5.1V645H287.7z M292.8,651.9v-2
			h-5.1v2H292.8z M304.5,644.7c-2,0-3.3-0.4-4-1.1c-0.7-0.7-1-2-1-3.9v-10.4h4.1v5c2.7-1.1,4.8-2,6.2-2.9l2.6,3
			c-2.1,1-5,2.1-8.9,3.2v2c0,0.6,0.1,1,0.3,1.1c0.2,0.2,0.6,0.2,1.2,0.2h3.7c0.6,0,1-0.2,1.1-0.6c0.2-0.4,0.3-1.4,0.4-2.9
			c0.9,0.7,2.1,1.2,3.6,1.5c-0.2,2.2-0.7,3.7-1.3,4.5c-0.6,0.8-1.8,1.2-3.3,1.2H304.5z M309.1,657.6c0.6,0,1-0.3,1.2-0.8
			c0.2-0.5,0.3-1.6,0.4-3.3c0.9,0.6,2.1,1.1,3.6,1.5c-0.2,2.4-0.6,4-1.3,4.9c-0.7,0.9-1.9,1.3-3.5,1.3h-4.8c-2,0-3.3-0.4-4-1.1
			c-0.7-0.7-1-2-1-3.9v-10.8h4.1v4.7c2.7-1.1,4.9-2.1,6.5-3.2l2.7,3c-2.3,1.2-5.3,2.4-9.2,3.7v2.7c0,0.6,0.1,1,0.3,1.1
			c0.2,0.2,0.6,0.2,1.3,0.2H309.1z"/>
		<path class="st1" d="M338.4,645.2c-0.7-0.6-2.6-1.8-5.6-3.6l2.3-2.9c2.4,1.2,4.3,2.2,5.8,3.2L338.4,645.2z M341.4,650
			c-1.2,3.4-2.7,7.1-4.4,11l-3.8-2.2c1.7-3.3,3.4-7,4.8-11.1L341.4,650z M340.1,636.1c-1-0.8-2.9-2-5.6-3.7l2.3-3
			c3.1,1.7,5,2.8,5.7,3.4L340.1,636.1z M357.7,650.1v7.4c0,1.7-0.5,2.8-1.5,3.3c-0.9,0.4-2.6,0.6-4.9,0.6c-0.2-1.2-0.5-2.3-1.1-3.5
			c0.8,0,1.8,0,3,0c0.3,0,0.5-0.2,0.5-0.5v-7.3h-5.4v-12.4h4.6c0.4-1.1,0.7-2.1,0.8-2.9h-6.7v5.8c0,9.6-1.6,16.5-4.7,20.9
			c-1-0.9-2.1-1.6-3.4-2.2c2.8-3.9,4.2-10.1,4.2-18.7V631h21.5v3.7h-10.1l3.9,0.7l-1.3,2.2h6.6v12.4H357.7z M352.6,652.5
			c-1.1,2.6-2.5,5-4,7.1c-0.8-0.7-1.9-1.4-3.2-2c1.4-1.7,2.6-3.8,3.6-6.2L352.6,652.5z M352,642.5h8v-1.9h-8V642.5z M352,647.2h8
			v-1.9h-8V647.2z M362.3,651.1c1.8,3.4,2.9,5.6,3.3,6.6l-3.8,1.7c-0.6-1.6-1.6-3.9-3.1-6.9L362.3,651.1z"/>
		<path class="st1" d="M414.7,630.7v30.8h-4.3V660h-20.9v1.5h-4.1v-30.8H414.7z M410.4,656.2v-21.7h-20.9v21.7H410.4z M401.9,642.1
			v2.8h5.7v9.1h-15v-9.1h5.4v-2.8h-7v-3.2h7v-3.3h3.9v3.3h7.1v3.2H401.9z M403.8,647.9h-7.6v3h7.6V647.9z"/>
		<path class="st1" d="M455.7,637.4c2.5,4,6.4,6.6,11.7,7.8c-1,0.9-1.9,2.2-2.7,3.8c-6.1-1.7-10.4-5.4-13.1-11
			c-2.1,5.6-6.8,9.4-14.1,11.4c-0.6-1.3-1.3-2.5-2.3-3.4c6.3-1.6,10.3-4.4,12.2-8.5h-11.8v-3.8h12.9c0.3-1.3,0.5-2.9,0.6-4.8h4.2
			c-0.2,1.9-0.4,3.4-0.6,4.8h14v3.8H455.7z M435.2,658.4c1.4-2.3,2.5-5.2,3.1-8.7l3.7,1.2c-1,4.4-2,7.5-3.1,9.3L435.2,658.4z
			 M455.3,657.1c0.9,0,1.4-0.2,1.7-0.7c0.2-0.5,0.4-1.6,0.5-3.3c0.9,0.6,2.1,1.1,3.7,1.5c-0.2,2.5-0.7,4.1-1.5,4.9
			c-0.7,0.8-2.1,1.2-4,1.2h-6.7c-2.4,0-4-0.3-4.8-1c-0.8-0.7-1.2-1.9-1.2-3.8V650h4.1v5.9c0,0.6,0.1,0.9,0.4,1
			c0.3,0.1,0.9,0.2,1.9,0.2H455.3z M450.3,642.8c2.6,1.4,4.6,2.7,5.9,3.9l-3.8,2.3c-1.4-1.4-3.2-2.7-5.7-4L450.3,642.8z
			 M450.9,647.7c2.4,2.2,4.1,4,5,5.7l-3.4,2.1c-1-1.7-2.6-3.7-4.8-5.9L450.9,647.7z M462.9,649.3c2,3.6,3.4,6.7,4.1,9.3l-3.9,1.3
			c-0.7-2.9-2-6-3.9-9.5L462.9,649.3z"/>
		<path class="st1" d="M515,652.3c1.3,0.7,2.4,1.1,3.3,1.3c-0.3,2.8-0.9,4.7-1.7,5.7c-0.9,1.1-2.3,1.7-4.4,1.7h-6.6
			c-2.4,0-4-0.5-4.8-1.4c-0.9-0.9-1.3-2.7-1.3-5.3v-1.9H493v2h-4.2v-20.3h10.9v-4.8h4.4v4.8H515V652.3z M493,638.2v3.3h6.7v-3.3H493
			z M499.7,648.5v-3.2H493v3.2H499.7z M504.1,638.2v3.3h6.7v-3.3H504.1z M504.1,645.3v3.2h6.7v-3.2H504.1z M511.9,656.9
			c0.8,0,1.4-0.3,1.7-0.9c0.3-0.6,0.5-1.7,0.7-3.5h-10.1v1.9c0,1.1,0.1,1.8,0.3,2c0.3,0.3,0.8,0.4,1.8,0.4H511.9z"/>
		<path class="st1" d="M543,645.6c-1.5-1.3-3.5-2.4-6-3.5l2.1-3.1c2.7,1,4.8,2.1,6.1,3.2L543,645.6z M538.2,658.3
			c2.1-3.3,4.1-6.9,5.9-10.9l3.2,2.6c-1.8,3.9-3.6,7.5-5.5,10.9L538.2,658.3z M545,636.3c-1.4-1.2-3.4-2.5-6.1-3.7l2.2-3
			c2.8,1.1,4.8,2.2,6.2,3.3L545,636.3z M562.9,657.2c1,0,1.7-0.3,2-0.9c0.3-0.6,0.5-1.8,0.7-3.8c1.2,0.8,2.4,1.3,3.8,1.6
			c-0.3,2.6-0.8,4.4-1.6,5.4c-0.9,1-2.4,1.5-4.5,1.5h-7.7c-2.5,0-4.1-0.4-5-1.3c-0.9-0.9-1.3-2.5-1.3-4.9v-9.2l-2,0.8l-1.6-3.6
			l3.7-1.4v-8.6h4.1v6.9l3.3-1.3v-9.1h4v7.6l3.6-1.4l1.1-0.8l2.9,1.1l-0.1,0.6c0,6.6-0.1,10.4-0.3,11.7c-0.1,1.6-0.8,2.7-1.9,3.1
			c-0.8,0.4-2.1,0.6-4,0.6c-0.1-1.5-0.4-2.8-0.9-3.9c0.5,0,1.2,0,2.1,0c0.5,0,0.7-0.3,0.9-0.8c0.1-0.6,0.2-3.1,0.2-7.4l-3.5,1.4
			v12.2h-4v-10.6l-3.3,1.3v10.8c0,1,0.1,1.7,0.4,2c0.3,0.3,1,0.4,2.1,0.4H562.9z"/>
	</g>
	<g>
		<path class="st2" d="M294.5,399l-2.2,12.3C293,407.3,293.7,403.2,294.5,399z"/>
		<path class="st2" d="M296.1,390.3l-0.9,4.7C295.5,393.5,295.8,391.9,296.1,390.3z"/>
		<path class="st2" d="M289.9,424.2l-0.4,2.1C289.7,425.6,289.8,424.9,289.9,424.2z"/>
		<path class="st2" d="M291.7,414.6l-0.7,4.1C291.2,417.3,291.4,415.9,291.7,414.6z"/>
		<path class="st2" d="M297.7,381.3l-0.9,5.3C297.1,384.8,297.4,383,297.7,381.3z"/>
		<path class="st2" d="M298.9,374.4l-1.2,6.4C298.2,378.7,298.6,376.5,298.9,374.4z"/>
		<path class="st2" d="M286.3,444.6l-0.2,0.9C286.2,445.2,286.2,444.9,286.3,444.6z"/>
		<polygon class="st2" points="375.5,153 378,138.5 375.5,153 		"/>
		<path class="st3" d="M492.5,165.5h-187c-4.1,0-7.6,2.8-8.6,6.7l-3.3,13.6h10.8l0.7-2.9c0.9-3.6,4.1-6.1,7.8-6.1h183.7
			c23.1,0,32.4,5.5,32.4,5.5C520,171.6,506.6,165.5,492.5,165.5z"/>
		<linearGradient id="SVGID_1_" gradientUnits="userSpaceOnUse" x1="329.8363" y1="463.9739" x2="385.6582" y2="136.2192">
			<stop  offset="0" style="stop-color:#F0EEEB"/>
			<stop  offset="0" style="stop-color:#E9E6E3"/>
			<stop  offset="6.363168e-02" style="stop-color:#DBD7D6"/>
			<stop  offset="0.1851" style="stop-color:#B5B0B3"/>
			<stop  offset="0.264" style="stop-color:#999499"/>
			<stop  offset="0.5225" style="stop-color:#F8F8F8"/>
			<stop  offset="0.5878" style="stop-color:#EAE9EA"/>
			<stop  offset="0.7133" style="stop-color:#C5C2C4"/>
			<stop  offset="0.8764" style="stop-color:#8D878A"/>
			<stop  offset="1" style="stop-color:#DBDCDC"/>
			<stop  offset="1" style="stop-color:#B4B4B5"/>
		</linearGradient>
		<polygon class="st4" points="389.7,153 390.9,148.3 378,138.5 375.5,153 		"/>
		<linearGradient id="SVGID_2_" gradientUnits="userSpaceOnUse" x1="457.7186" y1="485.7543" x2="513.5405" y2="157.9997">
			<stop  offset="0" style="stop-color:#F0EEEB"/>
			<stop  offset="0" style="stop-color:#E9E6E3"/>
			<stop  offset="6.363168e-02" style="stop-color:#DBD7D6"/>
			<stop  offset="0.1851" style="stop-color:#B5B0B3"/>
			<stop  offset="0.264" style="stop-color:#999499"/>
			<stop  offset="0.5225" style="stop-color:#F8F8F8"/>
			<stop  offset="0.5878" style="stop-color:#EAE9EA"/>
			<stop  offset="0.7133" style="stop-color:#C5C2C4"/>
			<stop  offset="0.8764" style="stop-color:#8D878A"/>
			<stop  offset="1" style="stop-color:#DBDCDC"/>
			<stop  offset="1" style="stop-color:#B4B4B5"/>
		</linearGradient>
		<path class="st5" d="M519.5,159.4l2.9-11.1l-12.8-9.7l-2.8,16.2C511.2,155.8,515.5,157.4,519.5,159.4z"/>
		<linearGradient id="SVGID_3_" gradientUnits="userSpaceOnUse" x1="412.0354" y1="458.3275" x2="521.2628" y2="175.2413">
			<stop  offset="0" style="stop-color:#323333"/>
			<stop  offset="0.2522" style="stop-color:#B2B2B2"/>
			<stop  offset="0.436" style="stop-color:#B2B2B2"/>
			<stop  offset="0.5258" style="stop-color:#A5A3A4"/>
			<stop  offset="0.6541" style="stop-color:#8D878A"/>
			<stop  offset="0.8198" style="stop-color:#F8F8F8"/>
			<stop  offset="0.8411" style="stop-color:#EAE9EA"/>
			<stop  offset="0.882" style="stop-color:#C5C2C4"/>
			<stop  offset="0.9351" style="stop-color:#8D878A"/>
		</linearGradient>
		<path class="st6" d="M522.1,160.7L522.1,160.7c6.2,3.5,11.8,8,16.5,13.5c0,0,0,0,0,0c9.3,10.8,14.4,24.5,14.6,38.5
			c0,0.3,0,0.7,0,1c0,0.6,0,1.2,0,1.7c0,0.6,0,1.2-0.1,1.7c-0.1,1.9-0.3,3.8-0.6,5.7l-24.5,157.2c-3.3,21.4-14.2,40.9-30.6,55
			c-0.3,0.2-0.6,0.5-0.9,0.7c-16.3,13.6-36.9,21.1-58.2,21.1H308.7l9.5,11.6h129.9c26.9,0,46-8.3,59.6-19.6
			c29-24.2,32.8-62.1,32.8-62.1s18.6-112.5,25.8-158.5C573.5,182.4,522.1,160.7,522.1,160.7z"/>
		<path class="st3" d="M398.2,245.4h-114h-7.6h-15l13.4,10.2l0,0h136.6c0.4,0,0.7,0,1.1,0C410.6,249.8,405,245.4,398.2,245.4z"/>
		<linearGradient id="SVGID_4_" gradientUnits="userSpaceOnUse" x1="288.5836" y1="481.3492" x2="325.3157" y2="276.699">
			<stop  offset="0" style="stop-color:#B2B2B2"/>
			<stop  offset="8.822321e-02" style="stop-color:#A3A3A3"/>
			<stop  offset="0.2468" style="stop-color:#7F7F80"/>
			<stop  offset="0.3227" style="stop-color:#707071"/>
			<stop  offset="0.4678" style="stop-color:#494A4A"/>
			<stop  offset="0.5459" style="stop-color:#323333"/>
			<stop  offset="0.809" style="stop-color:#B2B2B2"/>
			<stop  offset="0.8877" style="stop-color:#A5A3A4"/>
			<stop  offset="1" style="stop-color:#8D878A"/>
		</linearGradient>
		<path class="st7" d="M316.9,274.9c0,0-8.5,47.3-17.2,95.2l-0.8,4.4c-0.4,2.1-0.8,4.3-1.2,6.4l-0.1,0.5c-0.3,1.8-0.6,3.5-0.9,5.3
			l-0.7,3.8c-0.3,1.6-0.6,3.2-0.9,4.7l-0.7,3.9c-0.8,4.2-1.5,8.3-2.2,12.3l-0.6,3.3c-0.2,1.4-0.5,2.7-0.7,4.1l-1,5.5
			c-0.1,0.7-0.3,1.4-0.4,2.1l-3.3,18.2c-0.1,0.3-0.1,0.6-0.2,0.9l-4.2,23.1l0,0v0l16,9.2l35-193.7L316.9,274.9z"/>
		<linearGradient id="SVGID_5_" gradientUnits="userSpaceOnUse" x1="463.5629" y1="209.6148" x2="388.5903" y2="386.059">
			<stop  offset="0" style="stop-color:#323333"/>
			<stop  offset="0.2522" style="stop-color:#F1F1F1"/>
			<stop  offset="0.2863" style="stop-color:#E2E2E2"/>
			<stop  offset="0.3513" style="stop-color:#BBBBBB"/>
			<stop  offset="0.3657" style="stop-color:#B2B2B2"/>
			<stop  offset="0.4845" style="stop-color:#A5A3A4"/>
			<stop  offset="0.6541" style="stop-color:#8D878A"/>
			<stop  offset="0.7495" style="stop-color:#989898"/>
			<stop  offset="0.752" style="stop-color:#A39A89"/>
			<stop  offset="0.7569" style="stop-color:#BEA162"/>
			<stop  offset="0.76" style="stop-color:#D2A547"/>
			<stop  offset="0.7819" style="stop-color:#989898"/>
			<stop  offset="0.7889" style="stop-color:#999489"/>
			<stop  offset="0.8022" style="stop-color:#9D8962"/>
			<stop  offset="0.8204" style="stop-color:#A37824"/>
			<stop  offset="0.8243" style="stop-color:#A47416"/>
			<stop  offset="0.863" style="stop-color:#989898"/>
			<stop  offset="0.8695" style="stop-color:#A39A89"/>
			<stop  offset="0.8819" style="stop-color:#BEA162"/>
			<stop  offset="0.8897" style="stop-color:#D2A547"/>
			<stop  offset="0.9" style="stop-color:#B2B2B2"/>
			<stop  offset="0.9117" style="stop-color:#A3A3A3"/>
			<stop  offset="0.934" style="stop-color:#7C7D7D"/>
			<stop  offset="0.9646" style="stop-color:#3E3F3F"/>
			<stop  offset="0.97" style="stop-color:#323333"/>
		</linearGradient>
		<path class="st8" d="M431.1,187.3L431.1,187.3c26.2,6.1,45.4,29.7,45.6,57c0,0,0,0.1,0,0.1c0,0.8,0,1.7-0.1,2.5
			c0,0.4,0,0.8-0.1,1.2c0,0.6-0.1,1.2-0.1,1.8c0,0.5-0.1,0.9-0.1,1.4c-0.1,1-0.2,2-0.4,3.1l-10.3,63c-2.6,16.1-10.1,30.3-20.8,41.4
			c-1.6,1.6-3.3,3.2-5,4.7c-13.7,11.9-31.5,19-50.8,19h-48.7h-2.7h-15.2l13.4,10.2v0h66.6c38,0,70.4-27.5,76.6-65l10.3-63
			C495.2,228.6,467.2,193.5,431.1,187.3z"/>
		<g>
			<path class="st1" d="M256.3,274.9l-23.3,131.6l48.9,62.1l0,0l1.7-9.5c0,0,0-0.1,0-0.1l2.4-13.4l0.2-0.9c0.2-1.3,0.5-2.5,0.7-3.9
				l0.5-2.9c0.4-2,0.8-4.2,1.1-6.4l0.9-5.1l0.4-2.1c0.3-1.8,0.7-3.7,1-5.5l0.7-4.1c0.2-1.1,0.4-2.2,0.6-3.3l2.2-12.3
				c0.2-1.3,0.5-2.6,0.7-3.9l0.9-4.7c0.2-1.3,0.5-2.5,0.7-3.8l0.9-5.3c0-0.2,0.1-0.3,0.1-0.5l1.2-6.4c0.3-1.5,0.5-2.9,0.8-4.4
				l17.2-95.2H256.3z"/>
			<path class="st1" d="M553.1,212.7c-0.2-14-5.3-27.7-14.6-38.5c0,0,0,0,0,0c-4.7-5.5-10.3-10-16.5-13.5c-0.9-0.5-1.7-0.9-2.6-1.4
				c-4-2-8.3-3.6-12.7-4.6l2.8-16.2l0-0.1h-0.1h-52.7l-2.1,14.6h-65.1h-14.2h0l2.5-14.6h-52.9l-2.1,14.6h-17.5
				c-9.8,0-18.3,6.7-20.6,16.2l-4,16.5h-10l-9.3,59.6h15h7.6h114c6.8,0,12.4,4.3,14.5,10.2c0.9,2.4,1.2,5.1,0.7,7.9l-7.4,41.2
				c-2,11.3-11.9,19.6-23.5,19.6h-49.9l-10.2,57.9h15.2h2.7H389c19.3,0,37.1-7.1,50.8-19c1.7-1.5,3.4-3.1,5-4.7
				c10.7-11,18.1-25.3,20.8-41.4l10.3-63c0.2-1,0.3-2,0.4-3.1c0.1-0.5,0.1-0.9,0.1-1.4c0.1-0.6,0.1-1.2,0.1-1.8c0-0.4,0-0.8,0.1-1.2
				c0-0.8,0.1-1.7,0.1-2.5c0,0,0-0.1,0-0.1c-0.2-27.3-19.3-50.9-45.6-57c-4.3-1-8.7-1.5-13.3-1.5H304.5h-10.8l3.3-13.6
				c1-4,4.5-6.7,8.6-6.7h187c14.1,0,27.4,6.1,36.6,16.8c9.2,10.7,13.2,24.8,11,38.7l-24.5,157.2c-6,38.4-38.5,66.3-77.4,66.3H308.7
				V457h129.6c21.3,0,41.9-7.5,58.2-21.1c0.3-0.2,0.6-0.5,0.9-0.7c16.4-14.1,27.3-33.6,30.6-55L552.4,223c0.3-1.9,0.5-3.8,0.6-5.7
				c0-0.6,0.1-1.2,0.1-1.7c0-0.6,0-1.2,0-1.7C553.1,213.4,553.1,213.1,553.1,212.7z"/>
		</g>
		<g>
			<path class="st9" d="M508.1,350.9l-11.6-8.6c1.4,42.7-20.3,68.2-61.3,79l11.6,8.6C489.3,418.8,509.4,392.2,508.1,350.9z"/>
			<path class="st10" d="M496.5,342.3L482,347c-2.1,30.6-17.9,51.9-51.9,60.8l5,13.5C475.6,410.7,497.9,385.6,496.5,342.3z"/>
		</g>
	</g>
</g>
</svg>
